<svg width="22" height="18" viewBox="0 0 22 18" fill="none" xmlns="http://www.w3.org/2000/svg">
<path d="M7.23633 0.388681C6.91849 0.350764 6.5923 0.389769 6.28516 0.507822C5.36623 0.859365 4.16802 1.40815 3.12109 2.25392L3.09375 2.2754L3.06836 2.29688C2.60387 2.72748 2.34881 3.24397 2.02344 3.95118C1.69807 4.6584 1.37002 5.53114 1.07227 6.51368C0.476747 8.47876 0 10.8703 0 13.1641C0 13.4041 0.06291 13.6536 0.1875 13.8731C0.993689 15.2962 2.38757 16.0892 3.62891 16.5645C4.86014 17.0359 5.90378 17.1957 6.5 17.2168C6.51943 17.2175 6.56864 17.2246 6.57031 17.2246C6.9779 17.2246 7.50727 17.0745 7.80469 16.5117L8.72656 14.7676C10.253 15.0349 11.6982 15.0311 13.2656 14.752L14.1934 16.5078C14.4917 17.077 15.026 17.2227 15.4297 17.2227C15.4312 17.2227 15.4775 17.2174 15.4941 17.2168C16.0904 17.1963 17.1373 17.035 18.3711 16.5625C19.6109 16.0877 21.0024 15.2965 21.8086 13.877C21.9372 13.6537 22 13.403 22 13.1641C22 10.8703 21.5224 8.4776 20.9238 6.50978C20.6246 5.52586 20.2956 4.64973 19.9668 3.93946C19.638 3.22919 19.3733 2.70784 18.9082 2.27735L18.8828 2.25587L18.8574 2.23438C17.8215 1.39689 16.629 0.854339 15.7129 0.505869C15.1002 0.272385 14.4092 0.355353 13.8672 0.728525C13.4486 1.01636 13.3068 1.51436 13.1973 2.00001L8.80273 2.00001C8.69282 1.51479 8.55186 1.01633 8.13477 0.728525C7.86364 0.54144 7.55416 0.426599 7.23633 0.388681ZM7 2.37501C7 3.26107 7.73894 4.00001 8.625 4.00001H13.373C14.2579 4.00001 14.9989 3.25966 15 2.37501H15.002C15.7883 2.67414 16.7963 3.15793 17.5625 3.76759C17.5802 3.78952 17.8775 4.18983 18.1504 4.77931C18.4292 5.3816 18.7338 6.18447 19.0098 7.09181C19.5461 8.85515 19.9488 11.0263 19.9727 12.9922C19.4907 13.7431 18.6026 14.3329 17.6562 14.6953C16.8044 15.0216 16.0977 15.1062 15.7363 15.1465L15.2734 14.2695C15.6167 14.1688 15.9576 14.0699 16.3203 13.9473C16.4468 13.9069 16.5639 13.8417 16.665 13.7556C16.766 13.6694 16.8488 13.564 16.9087 13.4455C16.9686 13.3271 17.0042 13.1978 17.0136 13.0654C17.023 12.933 17.006 12.8 16.9635 12.6742C16.9209 12.5485 16.8538 12.4324 16.766 12.3329C16.6781 12.2333 16.5713 12.1523 16.4518 12.0944C16.3323 12.0366 16.2025 12.0031 16.07 11.9959C15.9374 11.9888 15.8047 12.0081 15.6797 12.0527C11.8496 13.3479 9.96509 13.3492 6.33398 12.0586C6.20863 12.0117 6.07513 11.9905 5.94141 11.9961C5.70898 12.0073 5.48772 12.0991 5.31573 12.2559C5.14375 12.4127 5.03181 12.6245 4.9992 12.8549C4.96658 13.0853 5.01533 13.3198 5.13704 13.5182C5.25876 13.7165 5.44582 13.8662 5.66602 13.9414C6.02989 14.0708 6.37505 14.1762 6.7207 14.2813L6.26367 15.1465C5.90254 15.1062 5.19557 15.0215 4.34375 14.6953C3.3974 14.333 2.50976 13.7457 2.02734 12.9942C2.05091 11.0278 2.45222 8.85619 2.98633 7.09376C3.26107 6.18717 3.56371 5.38731 3.83984 4.78712C4.10963 4.20071 4.40707 3.80139 4.41602 3.78712C5.19667 3.1665 6.21087 2.6769 7 2.37501ZM8.03906 6.9961C7.21006 6.9961 6.53906 7.8892 6.53906 8.9922C6.53906 10.0952 7.21006 10.9883 8.03906 10.9883C8.86806 10.9883 9.53906 10.0952 9.53906 8.9922C9.52106 7.8892 8.87106 6.8861 8.03906 6.9961ZM13.9961 7.01173C13.5983 7.01173 13.2167 7.22244 12.9354 7.59752C12.6541 7.97259 12.4961 8.4813 12.4961 9.01173C12.4961 9.54216 12.6541 10.0509 12.9354 10.4259C13.2167 10.801 13.5983 11.0117 13.9961 11.0117C14.3939 11.0117 14.7755 10.801 15.0568 10.4259C15.3381 10.0509 15.4961 9.54216 15.4961 9.01173C15.4961 8.4813 15.3381 7.97259 15.0568 7.59752C14.7755 7.22244 14.3939 7.01173 13.9961 7.01173Z" fill="#2597B3"/>
</svg>
