<svg width="30" height="30" viewBox="0 0 30 30" fill="none" xmlns="http://www.w3.org/2000/svg">
<path d="M14.748 23.068C15.948 23.068 16.98 22.888 17.844 22.528C18.732 22.168 19.416 21.652 19.896 20.98C20.376 20.308 20.616 19.504 20.616 18.568C20.616 17.56 20.292 16.72 19.644 16.048C19.02 15.376 18.036 14.752 16.692 14.176C15.804 13.792 15.084 13.468 14.532 13.204C14.004 12.916 13.62 12.604 13.38 12.268C13.14 11.932 13.02 11.5 13.02 10.972C13.02 10.276 13.248 9.76 13.704 9.424C14.184 9.088 14.88 8.92 15.792 8.92C16.464 8.92 17.1 8.992 17.7 9.136C18.324 9.28 18.936 9.484 19.536 9.748L20.256 7.84C19.512 7.528 18.744 7.3 17.952 7.156C17.184 6.988 16.404 6.904 15.612 6.904C14.004 6.904 12.732 7.288 11.796 8.056C10.86 8.8 10.392 9.772 10.392 10.972C10.392 12.028 10.68 12.904 11.256 13.6C11.832 14.296 12.636 14.884 13.668 15.364C14.364 15.676 15.036 15.988 15.684 16.3C16.356 16.588 16.908 16.924 17.34 17.308C17.772 17.692 17.988 18.172 17.988 18.748C17.988 19.492 17.724 20.056 17.196 20.44C16.668 20.824 15.876 21.016 14.82 21.016C14.052 21.016 13.272 20.932 12.48 20.764C11.688 20.572 10.896 20.296 10.104 19.936V22.204C10.8 22.492 11.532 22.708 12.3 22.852C13.068 22.996 13.884 23.068 14.748 23.068ZM15 29.98C12.96 29.98 11.04 29.596 9.24 28.828C7.44 28.06 5.856 27.004 4.488 25.66C3.144 24.292 2.088 22.708 1.32 20.908C0.552 19.108 0.168 17.188 0.168 15.148C0.168 13.108 0.552 11.2 1.32 9.424C2.088 7.624 3.144 6.04 4.488 4.672C5.856 3.304 7.44 2.236 9.24 1.468C11.04 0.699998 12.96 0.315998 15 0.315998C17.064 0.315998 18.984 0.699998 20.76 1.468C22.56 2.236 24.132 3.304 25.476 4.672C26.844 6.04 27.912 7.624 28.68 9.424C29.448 11.2 29.832 13.108 29.832 15.148C29.832 17.188 29.448 19.108 28.68 20.908C27.912 22.708 26.844 24.292 25.476 25.66C24.132 27.004 22.56 28.06 20.76 28.828C18.984 29.596 17.064 29.98 15 29.98Z" fill="#18C1FC"/>
</svg>
