<svg width="18" height="18" viewBox="0 0 18 18" fill="none" xmlns="http://www.w3.org/2000/svg">
<path d="M12.5 12.5C13.33 12.5 14 11.83 14 11C14 10.17 13.33 9.5 12.5 9.5C11.67 9.5 11 10.17 11 11C11 11.83 11.67 12.5 12.5 12.5ZM4 0H14C14.5304 0 15.0391 0.210714 15.4142 0.585786C15.7893 0.960859 16 1.46957 16 2V4C16.5304 4 17.0391 4.21071 17.4142 4.58579C17.7893 4.96086 18 5.46957 18 6V16C18 17.11 17.11 18 16 18H4C1.79 18 0 16.21 0 14V4C0 1.79 1.79 0 4 0ZM14 4V2H4C2.9 2 2 2.9 2 4V4.54C2.6075 4.18705 3.29742 4.00077 4 4H14ZM2 14C2 14.5304 2.21071 15.0391 2.58579 15.4142C2.96086 15.7893 3.46957 16 4 16H16V6H4C2.9 6 2 6.9 2 8V14Z" fill="#18C1FC"/>
</svg>
